<?xml version="1.0" encoding="UTF-8"?>
<svg xmlns="http://www.w3.org/2000/svg" viewBox="0 0 512 512" role="img" aria-label="mark">
  <title>Mark</title>
  <circle cx="256.0" cy="256.0" r="225.28" fill="#F6F3EA"/>
  <g fill="#1C2415">
  <path d="M 125.06 280.52 A 137.68 137.68 0 1 1 386.94 280.52" fill="none" stroke="#1C2415" stroke-width="22.01" stroke-linecap="round"/>
  <path d="M 141.99 273.45 C 139.45 240.51 186.33 235.44 238.26 258.25 C 245.87 273.45 243.33 291.18 233.20 303.85 C 202.79 316.52 157.19 311.45 141.99 273.45 Z"/>
  <path d="M 370.01 273.45 C 372.55 240.51 325.67 235.44 273.74 258.25 C 266.13 273.45 268.67 291.18 278.80 303.85 C 309.21 316.52 354.81 311.45 370.01 273.45 Z"/>
  <path d="M 195.19 298.78 C 228.13 286.12 283.87 286.12 316.81 298.78 C 325.67 316.52 309.21 336.79 256.00 341.85 C 202.79 336.79 186.33 316.52 195.19 298.78 Z"/>
  <rect x="251.17" y="164.50" width="9.66" height="119.08" rx="4.83" ry="4.83"/>
  <circle cx="256.00" cy="200.23" r="10.11"/>
  <circle cx="256.00" cy="226.42" r="10.11"/>
  <circle cx="256.00" cy="252.62" r="10.11"/>
  <circle cx="256.00" cy="166.73" r="14.87"/>
  <path d="M 236.08 154.28 A 23.49 23.49 0 0 1 275.92 154.28" fill="none" stroke="#1C2415" stroke-width="11.60" stroke-linecap="round"/>
  <rect x="168.28" y="373.88" width="175.45" height="13.68" rx="6.84" ry="6.84"/>
  <rect x="183.14" y="395.29" width="145.71" height="13.68" rx="6.84" ry="6.84"/>
  <rect x="198.01" y="416.70" width="115.97" height="13.68" rx="6.84" ry="6.84"/>
  <rect x="212.88" y="438.11" width="86.24" height="13.68" rx="6.84" ry="6.84"/>
</g>
</svg>
